<?xml version="1.0" encoding="utf-8"?>
<!-- Generator: Adobe Illustrator 25.4.1, SVG Export Plug-In . SVG Version: 6.00 Build 0)  -->
<svg version="1.2" baseProfile="tiny" id="Layer_1" xmlns="http://www.w3.org/2000/svg" xmlns:xlink="http://www.w3.org/1999/xlink"
	 x="0px" y="0px" viewBox="0 0 647.194 272.741" overflow="visible" xml:space="preserve">
<path fill-rule="evenodd" fill="#F8B600" d="M72.923,201.001c28.51-19.39,41.455-32.263,47.964-34.86l5.638-19.747l-14.332-0.01
	l33.186-45.717c-1.832-8.561-2.69-26.072-8.171-54.859c-0.459-2.41-1.219-2.412-1.678-0.002
	c-15.532,81.582,6.063,72.636-62.607,25.933c-2.025-1.378-2.563-0.84-1.186,1.186c46.704,68.671,55.649,47.074-25.933,62.607
	c-2.406,0.458-2.406,1.219,0,1.677c81.582,15.533,72.636-6.063,25.933,62.607C70.36,201.841,70.898,202.379,72.923,201.001z"/>
<path fill-rule="evenodd" fill="#3F3D36" d="M137.207,226.934c15.532-81.582-6.063-72.636,62.607-25.933
	c2.025,1.378,2.563,0.84,1.186-1.186c-46.704-68.671-55.648-47.074,25.934-62.607c2.406-0.458,2.406-1.219,0-1.677
	c-81.583-15.533-72.637,6.063-25.934-62.607c1.378-2.026,0.84-2.563-1.186-1.186c-28.521,19.397-41.465,32.273-47.972,34.863
	l-5.64,19.736l14.343,0.017l-33.186,45.717c1.832,8.561,2.69,26.073,8.171,54.859C135.988,229.342,136.748,229.344,137.207,226.934z
	"/>
<path fill="#3F3D36" stroke="#3F3D36" stroke-width="0.1" stroke-linejoin="round" stroke-miterlimit="10" d="M255.569,102.366
	c0.679,1.357,1.18,2.873,1.504,4.548c0.152,0.787-0.37,1.433-1.172,1.433l-9.815,0c-0.411,0-0.89-0.3-1.07-0.67
	c-0.466-0.956-1.285-2.406-1.583-2.775c-2.409-2.903-6.622-4.356-12.641-4.356c-4.864,0-8.307,0.91-10.329,2.73
	c-1.011,0.954-1.77,1.94-2.275,2.958c-0.506,1.019-0.758,2.156-0.758,3.413c0,2.471,1.131,4.313,3.395,5.525
	c1.685,0.824,5.562,1.886,11.629,3.186l9.318,2.016c4.67,0.997,8.307,2.362,10.907,4.096c4.574,3.12,6.862,7.628,6.862,13.521
	c0,7.281-2.914,12.504-8.74,15.667c-5.587,3.078-12.063,4.616-19.431,4.616c-4.333,0-8.187-0.521-11.557-1.561
	c-3.516-1.083-6.477-2.643-8.884-4.681c-2.504-1.993-4.383-4.421-5.634-7.281c-0.604-1.427-1.06-2.987-1.368-4.68
	c-0.143-0.789,0.367-1.43,1.169-1.43l9.506,0c0.488,0,1.019,0.377,1.145,0.849c0.368,1.384,0.953,2.618,1.756,3.702
	c2.696,3.684,7.512,5.525,14.446,5.525c3.129,0,6.019-0.411,8.668-1.235c2.456-0.822,4.249-1.885,5.381-3.186
	c1.131-1.3,1.697-2.946,1.697-4.94c0-2.99-0.916-5.048-2.745-6.176c-2.216-1.3-5.634-2.448-10.257-3.445l-9.029-1.886
	c-6.02-1.256-10.306-2.665-12.857-4.226c-4.623-2.772-6.934-6.977-6.934-12.611c0-5.894,2.214-10.727,6.645-14.497
	c2.119-1.863,4.791-3.293,8.018-4.29c3.034-0.91,6.524-1.365,10.474-1.365c7.271,0,13.482,1.625,18.636,4.875
	C252.294,97.47,254.269,99.68,255.569,102.366z"/>
<path fill="#3F3D36" stroke="#3F3D36" stroke-width="0.1" stroke-linejoin="round" stroke-miterlimit="10" d="M268.258,122.65
	c0-4.203,0.542-7.844,1.625-10.922c1.083-3.076,2.42-5.698,4.009-7.866c1.589-2.166,3.25-3.933,4.984-5.298
	c1.734-1.365,3.25-2.459,4.551-3.283c2.601-1.646,5.333-2.784,8.198-3.413c2.865-0.627,5.67-0.942,8.415-0.942
	c4.104,0,7.833,0.612,11.186,1.837c4.476,1.634,8.284,4.36,11.423,8.175c5.441,6.675,8.162,15.039,8.162,25.094
	c0,10.661-2.77,18.701-8.307,24.118c-5.441,5.418-12.617,8.126-21.525,8.126c-4.287,0-8.211-0.802-11.774-2.405
	c-2.72-1.157-5.186-2.782-7.4-4.872c-1.078-1.018-1.99-0.605-1.99,0.877v15.778c0,0.655-0.536,1.191-1.191,1.191h-9.176
	c-0.655,0-1.191-0.536-1.191-1.191V122.65z M299.39,100.871c-4.238,0-7.718,1.084-10.438,3.251c-2.721,2.167-4.828,4.984-6.32,8.451
	c-0.819,1.863-1.445,3.923-1.878,6.176c-0.434,2.254-0.65,4.529-0.65,6.826c0,8.278,1.998,14.193,5.996,17.747
	c3.948,3.598,8.595,5.396,13.94,5.396c6.115,0,10.714-2.188,13.796-6.565c3.129-4.291,4.695-9.816,4.695-16.577
	c0-7.542-1.566-13.587-4.695-18.138c-1.542-2.297-3.539-3.966-5.995-5.006S302.568,100.871,299.39,100.871z"/>
<path fill="#3F3D36" stroke="#3F3D36" stroke-width="0.1" stroke-linejoin="round" stroke-miterlimit="10" d="M396.47,129.54
	c-0.049,1.994-0.242,4.031-0.578,6.111c-0.289,1.777-0.771,3.673-1.444,5.688c-0.675,2.015-1.638,3.847-2.89,5.493
	c-1.108,1.56-2.312,2.883-3.611,3.965c-1.301,1.084-2.613,2.006-3.937,2.764c-1.325,0.759-2.626,1.387-3.9,1.885
	c-1.277,0.499-2.445,0.942-3.504,1.333c-1.155,0.434-2.444,0.758-3.864,0.975c-1.421,0.217-2.865,0.357-4.334,0.423
	c-1.47,0.065-2.95,0.098-4.442,0.098c-1.493,0-2.914,0-4.262,0c-6.501,0-11.871-1.798-16.107-5.396
	c-4.189-3.554-6.284-8.039-6.284-13.457c0-5.894,2.069-10.467,6.212-13.717c4.045-3.251,9.414-5.244,16.107-5.981l18.925-2.145
	c2.793-0.347,4.623-1.387,5.49-3.121c0.529-0.822,0.794-2.188,0.794-4.096c0-0.91-0.072-1.755-0.217-2.535
	c-0.577-2.383-1.926-4.182-4.045-5.396c-2.938-1.646-7.055-2.471-12.352-2.471c-1.3,0-2.504,0.076-3.611,0.228
	c-1.108,0.152-2.239,0.337-3.396,0.553c-0.819,0.174-1.806,0.38-2.961,0.617c-1.156,0.239-2.288,0.488-3.396,0.748
	c-0.793,0.192-1.606,0.385-2.437,0.577c-0.801,0.185-1.463-0.339-1.463-1.161v-7.042c0-0.525,0.423-1.05,0.936-1.164
	c1.016-0.225,2.005-0.437,2.965-0.636c1.107-0.217,2.239-0.444,3.396-0.683c1.155-0.238,2.142-0.423,2.961-0.553h0.072
	c2.312-0.391,4.695-0.585,7.151-0.585c8.33,0,15.097,1.43,20.297,4.29c5.152,2.86,7.729,7.304,7.729,13.327v0.064V129.54z
	 M384.608,126.3c0.008-0.896-0.688-1.41-1.544-1.148c-0.189,0.058-0.367,0.112-0.535,0.162c-0.577,0.174-1.18,0.348-1.806,0.521
	c-0.626,0.174-1.155,0.304-1.589,0.39c-0.915,0.218-2.083,0.423-3.503,0.618c-1.421,0.194-2.686,0.357-3.793,0.487l-7.15,0.845
	c-2.167,0.261-3.998,0.543-5.49,0.846c-1.493,0.304-2.793,0.737-3.9,1.3c-3.708,1.82-5.562,4.789-5.562,8.906
	c0,3.034,1.275,5.461,3.828,7.281c2.503,1.777,5.465,2.665,8.885,2.665c4.236,0,8.307-0.866,12.207-2.601
	c6.597-2.946,9.896-7.692,9.896-14.236L384.608,126.3z"/>
<path fill="#3F3D36" stroke="#3F3D36" stroke-width="0.1" stroke-linejoin="round" stroke-miterlimit="10" d="M407.443,157.494
	c-0.655,0-1.191-0.536-1.191-1.191v-40.74c0-4.724,0.976-8.668,2.926-11.832c1.95-3.163,4.453-5.698,7.512-7.605
	c3.058-1.907,6.44-3.272,10.149-4.096c3.282-0.729,6.49-1.136,9.622-1.219c0.667-0.018,1.212,0.53,1.212,1.198v8.54
	c0,0.642-0.525,1.166-1.167,1.188c-1.754,0.061-3.556,0.26-5.406,0.597c-2.264,0.412-4.333,1.138-6.212,2.178
	c-1.878,1.04-3.431,2.449-4.658,4.226c-1.229,1.777-1.842,4.03-1.842,6.761v0.065v40.74c0,0.655-0.536,1.191-1.191,1.191H407.443z"
	/>
<path fill="#3F3D36" stroke="#3F3D36" stroke-width="0.1" stroke-linejoin="round" stroke-miterlimit="10" d="M491.03,157.56
	c-0.345,0-0.79-0.238-0.986-0.523c-3.037-4.432-5.807-8.461-8.31-12.09c-1.108-1.603-2.215-3.195-3.322-4.778
	c-1.108-1.581-2.107-3.033-2.998-4.355c-0.892-1.321-1.661-2.448-2.312-3.38c-0.649-0.932-1.072-1.55-1.264-1.854
	c-1.253-1.776-2.745-2.74-4.479-2.893c-1.733-0.151-3.467,0.293-5.2,1.333c-0.964,0.607-1.746,1.278-2.348,2.015
	c-0.603,0.737-1.061,1.539-1.373,2.405c-0.313,0.868-0.518,1.799-0.613,2.796c-0.098,0.997-0.145,2.059-0.145,3.186v16.882
	c0,0.655-0.536,1.191-1.191,1.191h-9.321c-0.655,0-1.191-0.536-1.191-1.191v-37.88V83.471c0.048-0.866,0.289-1.646,0.723-2.34
	c0.385-0.606,0.975-1.148,1.77-1.626c0.795-0.476,1.914-0.715,3.358-0.715c1.445,0,2.564,0.239,3.359,0.715
	c0.795,0.478,1.384,1.02,1.77,1.626c0.434,0.693,0.674,1.474,0.723,2.34v33.931c0,1.456,0.891,1.857,1.981,0.891l27.801-24.662
	c0.186-0.165,0.541-0.3,0.79-0.3h11.951c1.72,0,2.076,0.936,0.792,2.08l-23.868,21.252c-0.446,0.397-0.521,1.115-0.167,1.596
	l27.573,37.405c0.769,1.043,0.338,1.897-0.958,1.897L491.03,157.56z"/>
<path fill="#F8B600" stroke="#F8B600" stroke-width="0.1" stroke-linejoin="round" stroke-miterlimit="10" d="M550.877,146.568
	v8.531c0,0.459-0.347,0.971-0.779,1.126c-3.812,1.366-8.151,2.049-13.017,2.049c-9.246,0-16.613-3.033-22.104-9.102
	c-5.489-6.11-8.234-13.717-8.234-22.818c0-11.094,3.009-19.784,9.029-26.068c6.019-6.197,13.699-9.296,23.042-9.296
	c4.203,0,7.939,0.457,11.206,1.372c0.475,0.133,0.856,0.657,0.856,1.15v8.337c0,1.175-0.808,1.622-1.809,1.006
	c-2.503-1.539-5.921-2.309-10.254-2.309c-7.609,0-13.026,3.315-16.252,9.946c-2.12,4.335-3.179,9.665-3.179,15.992
	c0,6.371,1.517,11.725,4.551,16.058c2.937,4.334,7.632,6.501,14.085,6.501c3.009,0,5.628-0.494,7.858-1.483
	c0.816-0.362,1.581-0.791,2.292-1.285c0.156-0.108,0.426-0.334,0.738-0.606C549.986,144.725,550.877,145.136,550.877,146.568z"/>
<path fill="#F8B600" stroke="#F8B600" stroke-width="0.1" stroke-linejoin="round" stroke-miterlimit="10" d="M602.956,146.486
	v8.613c0,0.459-0.347,0.971-0.779,1.126c-3.812,1.366-8.151,2.049-13.017,2.049c-9.246,0-16.613-3.033-22.104-9.102
	c-5.489-6.11-8.234-13.717-8.234-22.818c0-11.094,3.009-19.784,9.029-26.068c6.019-6.197,13.699-9.296,23.042-9.296
	c4.203,0,7.939,0.457,11.206,1.372c0.475,0.133,0.856,0.657,0.856,1.15v8.337c0,1.175-0.808,1.622-1.809,1.006
	c-2.503-1.539-5.921-2.309-10.254-2.309c-7.609,0-13.026,3.315-16.252,9.946c-2.12,4.335-3.179,9.665-3.179,15.992
	c0,6.371,1.517,11.725,4.551,16.058c2.937,4.334,7.632,6.501,14.085,6.501c2.074,0,3.963-0.235,5.667-0.705
	c1.252-0.345,2.403-0.817,3.455-1.416c0.399-0.227,1.098-0.778,1.786-1.353C602.075,144.676,602.956,145.093,602.956,146.486z"/>
<path fill="#3F3D36" d="M351.238,185.592c0-4.374-1.842-6.849-5.41-6.849c-3.224,0-5.871,2.417-5.871,7.137v17.324h-5.985v-17.612
	c0-4.374-1.842-6.849-5.411-6.849c-3.223,0-5.87,2.417-5.87,7.137v17.324h-5.986v-29.411h5.986v2.705
	c1.669-2.417,4.432-3.396,7.425-3.396c3.223,0,6.158,1.208,7.827,4.201c1.842-2.878,4.835-4.201,8.691-4.201
	c5.985,0,10.59,3.338,10.59,11.108v18.993h-5.985V185.592z"/>
<path fill="#3F3D36" d="M380.036,200.672c-1.496,1.554-4.144,3.223-8.058,3.223c-5.986,0-10.476-3.338-10.476-9.842
	c0-6.792,5.525-9.727,11.281-9.727c2.705,0,5.295,0.575,7.252,1.727v-1.612c0-4.432-1.957-6.043-6.273-6.043
	c-3.684,0-6.216,1.036-8.403,2.647l-1.784-4.893c2.417-1.669,6.158-3.05,10.993-3.05c5.008,0,11.224,1.266,11.224,11.051v19.051
	h-5.756V200.672z M380.036,195.434v-4.489c-1.611-0.863-3.972-1.438-6.273-1.438c-3.568,0-6.504,1.323-6.504,4.547
	c0,2.763,2.015,4.547,5.813,4.547C376.122,198.6,378.483,197.161,380.036,195.434z"/>
<path fill="#3F3D36" d="M410.117,203.204l-8.69-16.922l-3.799,3.799v13.123h-5.986v-38.735l5.986-2.82v21.238l8.69-9.094h7.367
	l-8.058,8.173l11.051,21.238H410.117z"/>
<path fill="#3F3D36" d="M417.48,188.47c0-9.669,5.295-15.367,13.353-15.367c6.965,0,12.664,4.374,12.664,13.756
	c0,1.266-0.058,2.82-0.23,3.856h-19.8c0.115,4.834,3.626,7.885,7.425,7.885c2.418,0,4.604-1.036,6.102-2.993l3.914,4.029
	c-2.129,2.532-5.468,4.259-10.073,4.259C422.659,203.895,417.48,198.139,417.48,188.47z M437.509,185.88
	c-0.115-5.468-3.511-7.482-6.677-7.482c-3.741,0-7.079,2.015-7.367,7.482H437.509z"/>
<path fill="#3F3D36" d="M448.055,173.793h5.986v3.568c1.381-2.993,3.626-4.259,6.562-4.259c1.957,0,3.626,0.633,4.949,1.784
	l-0.863,5.525c-1.094-0.748-2.532-1.439-4.662-1.439c-2.647,0-5.985,1.67-5.985,7.713v16.519h-5.986V173.793z"/>
<path fill="#3F3D36" d="M467.214,199.117l4.259-3.626c1.209,1.151,3.453,2.993,6.734,2.993c2.992,0,5.18-0.806,5.18-3.165
	c0-2.36-2.82-3.396-6.101-4.662c-6.217-2.072-9.382-4.72-9.382-9.439c0-5.237,4.547-8.115,10.245-8.115
	c5.064,0,8.402,2.129,10.302,4.432l-4.316,3.453c-1.036-1.094-2.878-2.475-5.985-2.475c-2.533,0-4.145,0.979-4.145,2.705
	c0,1.957,2.59,2.936,5.698,4.144c6.331,2.13,9.669,4.662,9.669,9.958c0,5.64-4.374,8.575-11.051,8.575
	C473.717,203.895,469.285,202.053,467.214,199.117z"/>
<path fill="#3F3D36" d="M498.937,200.672v11.338l-5.986,2.763v-40.979h5.986v2.359c1.554-1.727,3.684-3.05,7.079-3.05
	c7.425,0,12.087,5.755,12.087,15.425c0,9.669-4.893,15.367-12.087,15.367C502.563,203.895,500.376,202.456,498.937,200.672z
	 M512.117,188.528c0-5.698-2.532-9.784-6.964-9.784c-2.763,0-4.893,1.208-6.216,3.338v12.777c1.323,1.784,3.396,3.396,6.216,3.396
	C509.642,198.254,512.117,194.801,512.117,188.528z"/>
<path fill="#3F3D36" d="M539.827,200.672c-1.496,1.554-4.144,3.223-8.058,3.223c-5.986,0-10.476-3.338-10.476-9.842
	c0-6.792,5.525-9.727,11.281-9.727c2.705,0,5.295,0.575,7.252,1.727v-1.612c0-4.432-1.957-6.043-6.273-6.043
	c-3.684,0-6.216,1.036-8.403,2.647l-1.784-4.893c2.417-1.669,6.158-3.05,10.993-3.05c5.008,0,11.224,1.266,11.224,11.051v19.051
	h-5.756V200.672z M539.827,195.434v-4.489c-1.611-0.863-3.972-1.438-6.273-1.438c-3.568,0-6.504,1.323-6.504,4.547
	c0,2.763,2.015,4.547,5.813,4.547C535.913,198.6,538.273,197.161,539.827,195.434z"/>
<path fill="#3F3D36" d="M550.103,188.528c0-9.67,4.949-15.425,12.835-15.425c5.41,0,9.382,2.359,11.108,7.597l-5.698,1.957
	c-0.863-2.244-2.647-3.799-5.18-3.799c-4.489,0-6.965,3.684-6.965,9.67c0,5.985,2.476,9.611,6.734,9.611
	c2.705,0,4.72-1.554,5.525-4.316l5.698,1.784c-1.555,5.468-5.41,8.288-11.224,8.288
	C555.052,203.895,550.103,198.197,550.103,188.528z"/>
<path fill="#3F3D36" d="M577.178,188.47c0-9.669,5.295-15.367,13.353-15.367c6.965,0,12.663,4.374,12.663,13.756
	c0,1.266-0.058,2.82-0.23,3.856h-19.8c0.115,4.834,3.626,7.885,7.425,7.885c2.418,0,4.604-1.036,6.102-2.993l3.913,4.029
	c-2.129,2.532-5.468,4.259-10.072,4.259C582.358,203.895,577.178,198.139,577.178,188.47z M597.208,185.88
	c-0.115-5.468-3.511-7.482-6.677-7.482c-3.741,0-7.079,2.015-7.367,7.482H597.208z"/>
</svg>
