<?xml version="1.0" encoding="UTF-8" standalone="no"?>
<!-- Generator: Adobe Illustrator 25.4.1, SVG Export Plug-In . SVG Version: 6.00 Build 0)  -->

<svg
   version="1.2"
   id="Layer_1"
   x="0px"
   y="0px"
   viewBox="0 0 272.74101 272.741"
   overflow="visible"
   xml:space="preserve"
   sodipodi:docname="sparkcc logo - final refresh.svg"
   width="272.741"
   height="272.741"
   inkscape:version="1.1 (c68e22c387, 2021-05-23)"
   xmlns:inkscape="http://www.inkscape.org/namespaces/inkscape"
   xmlns:sodipodi="http://sodipodi.sourceforge.net/DTD/sodipodi-0.dtd"
   xmlns="http://www.w3.org/2000/svg"
   xmlns:svg="http://www.w3.org/2000/svg"><defs
   id="defs908" /><sodipodi:namedview
   id="namedview906"
   pagecolor="#ffffff"
   bordercolor="#666666"
   borderopacity="1.0"
   inkscape:pageshadow="2"
   inkscape:pageopacity="0.0"
   inkscape:pagecheckerboard="0"
   showgrid="false"
   height="272.741px"
   inkscape:zoom="1.0849251"
   inkscape:cx="240.5696"
   inkscape:cy="279.74281"
   inkscape:window-width="1600"
   inkscape:window-height="837"
   inkscape:window-x="-8"
   inkscape:window-y="-8"
   inkscape:window-maximized="1"
   inkscape:current-layer="Layer_1" />

<g
   id="g1098"><path
     fill-rule="evenodd"
     fill="#f8b600"
     d="m 72.923,201.001 c 28.51,-19.39 41.455,-32.263 47.964,-34.86 l 5.638,-19.747 -14.332,-0.01 33.186,-45.717 c -1.832,-8.561 -2.69,-26.072 -8.171,-54.859 -0.459,-2.41 -1.219,-2.412 -1.678,-0.002 -15.532,81.582 6.063,72.636 -62.607,25.933 -2.025,-1.378 -2.563,-0.84 -1.186,1.186 46.704,68.671 55.649,47.074 -25.933,62.607 -2.406,0.458 -2.406,1.219 0,1.677 81.582,15.533 72.636,-6.063 25.933,62.607 -1.377,2.025 -0.839,2.563 1.186,1.185 z"
     id="path867" /><path
     fill-rule="evenodd"
     fill="#3f3d36"
     d="m 137.207,226.934 c 15.532,-81.582 -6.063,-72.636 62.607,-25.933 2.025,1.378 2.563,0.84 1.186,-1.186 -46.704,-68.671 -55.648,-47.074 25.934,-62.607 2.406,-0.458 2.406,-1.219 0,-1.677 -81.583,-15.533 -72.637,6.063 -25.934,-62.607 1.378,-2.026 0.84,-2.563 -1.186,-1.186 -28.521,19.397 -41.465,32.273 -47.972,34.863 l -5.64,19.736 14.343,0.017 -33.186,45.717 c 1.832,8.561 2.69,26.073 8.171,54.859 0.458,2.412 1.218,2.414 1.677,0.004 z"
     id="path869" /></g>

















</svg>
