<?xml version="1.0" encoding="UTF-8" standalone="no"?>
<!-- Created with Inkscape (http://www.inkscape.org/) -->

<svg
   xmlns:dc="http://purl.org/dc/elements/1.1/"
   xmlns:cc="http://creativecommons.org/ns#"
   xmlns:rdf="http://www.w3.org/1999/02/22-rdf-syntax-ns#"
   xmlns:svg="http://www.w3.org/2000/svg"
   xmlns="http://www.w3.org/2000/svg"
   xmlns:sodipodi="http://sodipodi.sourceforge.net/DTD/sodipodi-0.dtd"
   xmlns:inkscape="http://www.inkscape.org/namespaces/inkscape"
   id="svg3355"
   version="1.1"
   inkscape:version="0.91 r13725"
   xml:space="preserve"
   width="886.25"
   height="426.25"
   viewBox="0 0 886.25 426.25"
   sodipodi:docname="SparkCC_logo.svg"><metadata
     id="metadata3361"><rdf:RDF><cc:Work
         rdf:about=""><dc:format>image/svg+xml</dc:format><dc:type
           rdf:resource="http://purl.org/dc/dcmitype/StillImage" /><dc:title></dc:title></cc:Work></rdf:RDF></metadata><defs
     id="defs3359" /><sodipodi:namedview
     pagecolor="#ffffff"
     bordercolor="#666666"
     borderopacity="1"
     objecttolerance="10"
     gridtolerance="10"
     guidetolerance="10"
     inkscape:pageopacity="0"
     inkscape:pageshadow="2"
     inkscape:window-width="1442"
     inkscape:window-height="856"
     id="namedview3357"
     showgrid="false"
     inkscape:zoom="1.4691114"
     inkscape:cx="443.125"
     inkscape:cy="213.125"
     inkscape:window-x="0"
     inkscape:window-y="0"
     inkscape:window-maximized="0"
     inkscape:current-layer="g3365" /><g
     id="g3363"
     inkscape:groupmode="layer"
     inkscape:label="ink_ext_XXXXXX"
     transform="matrix(1.25,0,0,-1.25,0,426.25)"><g
       id="g3365"
       transform="scale(0.1,0.1)"><path
         d="m 1890.09,2004.73 c 82.63,-2.48 246.74,165.4 612.61,453.97 -622.05,-788.7 -683.67,-640.06 313.95,-757.91 -997.62,-117.84 -936,30.79 -313.95,-757.915 -788.7,622.045 -640.07,683.675 -757.91,-313.945 -48.12,407.34 -51.83,638.02 -93.05,726.11 l 312.12,376.14 30.62,36.89 -47.97,-1.19 -173.85,-4.36 117.43,242.21"
         style="fill:#332c2b;fill-opacity:1;fill-rule:evenodd;stroke:none"
         id="path3375"
         inkscape:connector-curvature="0" /><path
         d="m 1744.79,2772.65 c 48.76,-412.73 51.93,-644 94.71,-729.45 l -313.87,-386.81 -30.72,-37.86 48.66,2.33 164.64,7.89 -107.34,-231.92 c -82.17,4.38 -246.09,-163.78 -613.995,-453.955 622.045,788.705 683.665,640.075 -313.949,757.915 997.614,117.85 935.994,-30.79 313.949,757.91 788.695,-622.04 640.065,-683.67 757.915,313.95"
         style="fill:#f8b600;fill-opacity:1;fill-rule:evenodd;stroke:none"
         id="path3377"
         inkscape:connector-curvature="0" /></g></g></svg>